# Blender v2.93.2 OBJ File: ''
# www.blender.org
mtllib gate.mtl
o Cube.002_Cube.005
v -0.792965 0.748784 5.792965
v -1.000000 -0.748784 6.000000
v -0.792965 0.748784 4.207035
v -1.000000 -0.748784 4.000000
v 0.792965 0.748784 5.792965
v 1.000000 -0.748784 6.000000
v 0.792965 0.748784 4.207035
v 1.000000 -0.748784 4.000000
v -1.000000 0.748784 4.000000
v 1.000000 0.748784 4.000000
v -1.000000 0.748784 6.000000
v 1.000000 0.748784 6.000000
v -1.060275 5.302037 6.060275
v -1.060275 5.302037 3.939725
v 1.060275 5.302037 6.060275
v 1.060275 5.302037 3.939725
v -0.792965 5.102944 4.207035
v 0.792965 5.102944 4.207035
v -0.792965 5.102944 5.792965
v 0.792965 5.102944 5.792965
v -1.060275 6.474043 3.939725
v 1.060275 6.474043 3.939725
v -1.060275 6.474043 6.060275
v 1.060275 6.474043 6.060275
v -1.492173 9.661997 1.667220
v 1.492172 9.661997 1.667220
v -1.492172 9.661997 4.651565
v 1.492172 9.661997 4.651565
v -1.060275 9.478086 2.519308
v 1.060275 9.478086 2.519308
v -1.060275 9.478086 4.639858
v 1.060275 9.478086 4.639858
v -1.432191 10.461901 0.000000
v 1.432190 10.461901 0.000000
v -1.432191 10.907782 2.347041
v 1.432191 10.907782 2.347040
v -1.492173 10.379907 0.752550
v 1.492172 10.379907 0.752550
v -1.492172 10.379907 3.736895
v 1.492172 10.379907 3.736895
v 0.792965 0.748784 -5.792965
v 1.000000 -0.748784 -6.000000
v 0.792965 0.748784 -4.207035
v 1.000000 -0.748784 -4.000000
v -0.792965 0.748784 -5.792965
v -1.000000 -0.748784 -6.000000
v -0.792965 0.748784 -4.207035
v -1.000000 -0.748784 -4.000000
v 1.000000 0.748784 -4.000000
v -1.000000 0.748784 -4.000000
v 1.000000 0.748784 -6.000000
v -1.000000 0.748784 -6.000000
v 1.060275 5.302037 -6.060275
v 1.060275 5.302037 -3.939725
v -1.060275 5.302037 -6.060275
v -1.060275 5.302037 -3.939725
v 0.792965 5.102944 -4.207035
v -0.792965 5.102944 -4.207035
v 0.792965 5.102944 -5.792965
v -0.792965 5.102944 -5.792965
v 1.060275 6.474043 -3.939725
v -1.060275 6.474043 -3.939725
v 1.060275 6.474043 -6.060275
v -1.060275 6.474043 -6.060275
v 1.492172 9.661997 -1.667220
v -1.492172 9.661997 -1.667220
v 1.492172 9.661997 -4.651565
v -1.492172 9.661997 -4.651565
v 1.060275 9.478086 -2.519308
v -1.060275 9.478086 -2.519308
v 1.060275 9.478086 -4.639858
v -1.060275 9.478086 -4.639858
v 1.432191 10.907782 -2.347040
v -1.432191 10.907782 -2.347041
v 1.492172 10.379907 -0.752550
v -1.492172 10.379907 -0.752550
v 1.492172 10.379907 -3.736895
v -1.492172 10.379907 -3.736895
v -0.703444 11.079086 0.000000
v 0.703443 11.079086 0.000000
v -0.703444 11.079086 1.152787
v 0.703443 11.079086 1.152787
v 0.703443 11.079086 -1.152786
v -0.703444 11.079086 -1.152787
vt 0.849121 0.724121
vt 0.650879 0.724121
vt 0.650879 0.724121
vt 0.849121 0.724121
vt 0.375000 0.750000
vt 0.625000 0.750000
vt 0.625000 1.000000
vt 0.375000 1.000000
vt 0.375000 0.000000
vt 0.625000 0.000000
vt 0.625000 0.250000
vt 0.375000 0.250000
vt 0.125000 0.500000
vt 0.375000 0.500000
vt 0.125000 0.750000
vt 0.625000 0.500000
vt 0.875000 0.750000
vt 0.650879 0.525880
vt 0.849121 0.525879
vt 0.875000 0.500000
vt 0.682029 0.557029
vt 0.817971 0.557029
vt 0.817971 0.557029
vt 0.682029 0.557029
vt 0.849121 0.525879
vt 0.650879 0.525880
vt 0.682029 0.692971
vt 0.817971 0.692971
vt 0.682029 0.692971
vt 0.817971 0.692971
vt 0.817971 0.692971
vt 0.817971 0.557029
vt 0.704205 0.579205
vt 0.795795 0.579205
vt 0.795795 0.579205
vt 0.704205 0.579205
vt 0.682029 0.692971
vt 0.682029 0.557029
vt 0.704205 0.670795
vt 0.795795 0.670795
vt 0.712145 0.587145
vt 0.787855 0.587145
vt 0.787855 0.587145
vt 0.712145 0.587145
vt 0.704205 0.670795
vt 0.795795 0.670795
vt 0.712145 0.662855
vt 0.787855 0.662855
vt 0.849121 0.724121
vt 0.650879 0.724121
vt 0.650879 0.724121
vt 0.849121 0.724121
vt 0.375000 0.750000
vt 0.625000 0.750000
vt 0.625000 1.000000
vt 0.375000 1.000000
vt 0.375000 0.000000
vt 0.625000 0.000000
vt 0.625000 0.250000
vt 0.375000 0.250000
vt 0.125000 0.500000
vt 0.375000 0.500000
vt 0.125000 0.750000
vt 0.625000 0.500000
vt 0.875000 0.750000
vt 0.650879 0.525880
vt 0.849121 0.525879
vt 0.875000 0.500000
vt 0.682029 0.557029
vt 0.817971 0.557029
vt 0.817971 0.557029
vt 0.682029 0.557029
vt 0.849121 0.525879
vt 0.650879 0.525880
vt 0.682029 0.692971
vt 0.817971 0.692971
vt 0.682029 0.692971
vt 0.817971 0.692971
vt 0.817971 0.692971
vt 0.817971 0.557029
vt 0.704205 0.579205
vt 0.795795 0.579205
vt 0.795795 0.579205
vt 0.704205 0.579205
vt 0.682029 0.692971
vt 0.682029 0.557029
vt 0.704205 0.670795
vt 0.795795 0.670795
vt 0.712145 0.587145
vt 0.787855 0.587145
vt 0.787855 0.587145
vt 0.712145 0.587145
vt 0.704205 0.670795
vt 0.795795 0.670795
vt 0.712145 0.662855
vt 0.787855 0.662855
vt 0.787855 0.662855
vt 0.712145 0.662855
vt 0.787855 0.662855
vt 0.712145 0.662855
vn 0.0000 0.0000 -1.0000
vn 1.0000 0.0000 -0.0000
vn 0.0000 -1.0000 0.0000
vn -1.0000 0.0000 0.0000
vn 0.0000 0.0000 1.0000
vn 0.0000 1.0000 0.0000
vn 0.0000 -0.8020 -0.5973
vn -0.5973 -0.8020 -0.0000
vn 0.5973 -0.8020 0.0000
vn 0.0000 -0.8020 0.5973
vn 0.0000 0.7866 0.6174
vn 0.0000 -0.4275 -0.9040
vn 0.0000 0.4275 0.9040
vn -0.0000 -0.9775 -0.2110
vn -0.3918 -0.9201 0.0000
vn 0.3918 -0.9201 -0.0000
vn 0.0000 -0.0635 0.9980
vn 0.0000 0.9899 0.1420
vn -0.0000 -0.7866 -0.6174
vn 0.0000 -0.9941 -0.1083
vn -0.9886 0.1503 -0.0126
vn 0.9886 0.1503 -0.0126
vn 0.0000 0.9348 0.3551
vn 0.0000 0.7866 -0.6174
vn 0.0000 -0.4275 0.9040
vn 0.0000 0.4275 -0.9040
vn 0.0000 -0.9775 0.2110
vn 0.0000 -0.0635 -0.9980
vn 0.0000 0.9899 -0.1420
vn 0.0000 -0.7866 0.6174
vn 0.0000 -0.9941 0.1083
vn 0.9886 0.1503 0.0126
vn -0.9886 0.1503 0.0126
vn 0.0000 0.9348 -0.3551
vn 0.5392 0.8354 0.1064
vn -0.5392 0.8354 -0.1064
vn -0.5392 0.8354 0.1064
vn 0.5392 0.8354 -0.1064
usemtl Material
s off
f 7/1/1 3/2/1 17/3/1 18/4/1
f 4/5/1 9/6/1 10/7/1 8/8/1
f 8/9/2 10/10/2 12/11/2 6/12/2
f 6/13/3 2/14/3 4/5/3 8/15/3
f 2/14/4 11/16/4 9/6/4 4/5/4
f 6/12/5 12/11/5 11/16/5 2/14/5
f 3/2/6 7/1/6 10/17/6 9/6/6
f 1/18/6 3/2/6 9/6/6 11/16/6
f 7/1/6 5/19/6 12/20/6 10/17/6
f 5/19/6 1/18/6 11/16/6 12/20/6
f 13/21/5 15/22/5 24/23/5 23/24/5
f 1/18/5 5/19/5 20/25/5 19/26/5
f 3/2/4 1/18/4 19/26/4 17/3/4
f 5/19/2 7/1/2 18/4/2 20/25/2
f 14/27/7 16/28/7 18/4/7 17/3/7
f 13/21/8 14/27/8 17/3/8 19/26/8
f 16/28/9 15/22/9 20/25/9 18/4/9
f 15/22/10 13/21/10 19/26/10 20/25/10
f 14/27/4 13/21/4 23/24/4 21/29/4
f 15/22/2 16/28/2 22/30/2 24/23/2
f 16/28/1 14/27/1 21/29/1 22/30/1
f 24/23/2 22/30/2 30/31/2 32/32/2
f 27/33/11 28/34/11 40/35/11 39/36/11
f 22/30/12 21/29/12 29/37/12 30/31/12
f 23/24/13 24/23/13 32/32/13 31/38/13
f 21/29/4 23/24/4 31/38/4 29/37/4
f 25/39/14 26/40/14 30/31/14 29/37/14
f 27/33/15 25/39/15 29/37/15 31/38/15
f 26/40/16 28/34/16 32/32/16 30/31/16
f 28/34/17 27/33/17 31/38/17 32/32/17
f 35/41/18 36/42/18 82/43/18 81/44/18
f 25/39/4 27/33/4 39/36/4 37/45/4
f 28/34/2 26/40/2 38/46/2 40/35/2
f 26/40/19 25/39/19 37/45/19 38/46/19
f 33/47/20 34/48/20 38/46/20 37/45/20
f 35/41/21 33/47/21 37/45/21 39/36/21
f 34/48/22 36/42/22 40/35/22 38/46/22
f 36/42/23 35/41/23 39/36/23 40/35/23
f 47/49/5 43/50/5 57/51/5 58/52/5
f 44/53/5 49/54/5 50/55/5 48/56/5
f 48/57/4 50/58/4 52/59/4 46/60/4
f 46/61/3 42/62/3 44/53/3 48/63/3
f 42/62/2 51/64/2 49/54/2 44/53/2
f 46/60/1 52/59/1 51/64/1 42/62/1
f 43/50/6 47/49/6 50/65/6 49/54/6
f 41/66/6 43/50/6 49/54/6 51/64/6
f 47/49/6 45/67/6 52/68/6 50/65/6
f 45/67/6 41/66/6 51/64/6 52/68/6
f 53/69/1 55/70/1 64/71/1 63/72/1
f 41/66/1 45/67/1 60/73/1 59/74/1
f 43/50/2 41/66/2 59/74/2 57/51/2
f 45/67/4 47/49/4 58/52/4 60/73/4
f 54/75/10 56/76/10 58/52/10 57/51/10
f 53/69/9 54/75/9 57/51/9 59/74/9
f 56/76/8 55/70/8 60/73/8 58/52/8
f 55/70/7 53/69/7 59/74/7 60/73/7
f 54/75/2 53/69/2 63/72/2 61/77/2
f 55/70/4 56/76/4 62/78/4 64/71/4
f 56/76/5 54/75/5 61/77/5 62/78/5
f 64/71/4 62/78/4 70/79/4 72/80/4
f 67/81/24 68/82/24 78/83/24 77/84/24
f 62/78/25 61/77/25 69/85/25 70/79/25
f 63/72/26 64/71/26 72/80/26 71/86/26
f 61/77/2 63/72/2 71/86/2 69/85/2
f 65/87/27 66/88/27 70/79/27 69/85/27
f 67/81/16 65/87/16 69/85/16 71/86/16
f 66/88/15 68/82/15 72/80/15 70/79/15
f 68/82/28 67/81/28 71/86/28 72/80/28
f 73/89/29 74/90/29 84/91/29 83/92/29
f 65/87/2 67/81/2 77/84/2 75/93/2
f 68/82/4 66/88/4 76/94/4 78/83/4
f 66/88/30 65/87/30 75/93/30 76/94/30
f 34/95/31 33/96/31 76/94/31 75/93/31
f 73/89/32 34/95/32 75/93/32 77/84/32
f 33/96/33 74/90/33 78/83/33 76/94/33
f 74/90/34 73/89/34 77/84/34 78/83/34
f 80/97/6 79/98/6 81/44/6 82/43/6
f 79/99/6 80/100/6 83/92/6 84/91/6
f 34/95/35 73/89/35 83/92/35 80/100/35
f 33/47/36 35/41/36 81/44/36 79/98/36
f 74/90/37 33/96/37 79/99/37 84/91/37
f 36/42/38 34/48/38 80/97/38 82/43/38
